# xmcd
#
# Track frame offsets:
#	150
#	20123
#	35672
#	51894
#	67991
#	85700
#	101162
#	117412
#	127010
#	144559
#	163432
#	179443
#	198980
#	212105
#	230053
#	241753
#	263852
#	286525
#	300834
#	313819
#
# Disc length: 4363
#
# Revision: 2
# Processed by: cddbd v1.5.1PL0 Copyright (c) Steve Scherf et al.
# Submitted via: ExactAudioCopy v0.90b4
# Normalized: r1:DSETVAR1
#
DISCID=27110914
DTITLE=Various Artist - Dreams Of Passion
DYEAR=1900
DGENRE=Blues
TTITLE0=Stewart - Lilly Was Here
TTITLE1=Morricone - Chi Mai
TTITLE2=Hammer - Crockett's Theme
TTITLE3=Parson - Mammagamma
TTITLE4=Parson - Pipeline
TTITLE5=Myers - Deep Hunter
TTITLE6=Vangelis - Chariots Of Fire
TTITLE7=Lordan - Wonderful Land
TTITLE8=Morricone - Once Upon A Time In The West
TTITLE9=Jarre - Oxygen
TTITLE10=Lai - Bilitis
TTITLE11=Last - The Lonely Shepherd
TTITLE12=Lordan - Atlantis
TTITLE13=Vangelis - Theme From "Antarctica"
TTITLE14=Morricone - Addio A Cheyenne
TTITLE15=Knopfler - Going Home
TTITLE16=John - Song For Guy
TTITLE17=Didley, Horn, Jeczalic - Moments In Love
TTITLE18=Clapton, Kamen - Travelling East
TTITLE19=Clayderman - Love Story
EXTD=
EXTT0=
EXTT1=
EXTT2=
EXTT3=
EXTT4=
EXTT5=
EXTT6=
EXTT7=
EXTT8=
EXTT9=
EXTT10=
EXTT11=
EXTT12=
EXTT13=
EXTT14=
EXTT15=
EXTT16=
EXTT17=
EXTT18=
EXTT19=
PLAYORDER=
